<?xml version="1.0" encoding="UTF-8" standalone="no" ?>
<!DOCTYPE svg PUBLIC "-//W3C//DTD SVG 1.1//EN" "http://www.w3.org/Graphics/SVG/1.1/DTD/svg11.dtd">
<svg xmlns="http://www.w3.org/2000/svg" xmlns:xlink="http://www.w3.org/1999/xlink" version="1.1" width="1080" height="1080" viewBox="0 0 1080 1080" xml:space="preserve">
<desc>Created with Fabric.js 4.2.0</desc>
<defs>
</defs>
<g transform="matrix(0 0 0 0 0 0)" id="a8ef84e4-3efe-420f-b6df-dc2f57f45fb3"  >
</g>
<g transform="matrix(1 0 0 1 540 540)" id="8815b125-5554-4c72-bd80-654445a134a0"  >
<rect style="stroke: none; stroke-width: 1; stroke-dasharray: none; stroke-linecap: butt; stroke-dashoffset: 0; stroke-linejoin: miter; stroke-miterlimit: 4; fill: rgb(255,255,255); fill-rule: nonzero; opacity: 1;" vector-effect="non-scaling-stroke"  x="-540" y="-540" rx="0" ry="0" width="1080" height="1080" />
</g>
<g transform="matrix(1 0 0 1 561.44 521.62)"  >
<g style="" vector-effect="non-scaling-stroke"   >
		<g transform="matrix(0.43 0 0 0.43 129.17 0.01)"  >
<g style="" vector-effect="non-scaling-stroke"   >
		<g transform="matrix(1.33 0 0 -1.33 -1.24 -1.24)" clip-path="url(#CLIPPATH_5)"  >
<clipPath id="CLIPPATH_5" >
	<path transform="matrix(1 0 0 1 0 0) translate(-400, -400)" d="M 0 800 L 800 800 L 800 0 L 0 0 Z" stroke-linecap="round" />
</clipPath>
<path style="stroke: none; stroke-width: 1; stroke-dasharray: none; stroke-linecap: butt; stroke-dashoffset: 0; stroke-linejoin: miter; stroke-miterlimit: 4; fill: rgb(240,185,11); fill-rule: nonzero; opacity: 1;" vector-effect="non-scaling-stroke"  transform=" translate(0, 373.5)" d="M 0 0 C 206.278 0 373.5 -167.222 373.5 -373.5 C 373.5 -579.778 206.278 -747 0 -747 C -206.278 -747 -373.5 -579.778 -373.5 -373.5 C -373.5 -167.222 -206.278 0 0 0" stroke-linecap="round" />
</g>
		<g transform="matrix(1.33 0 0 -1.33 -0.85 -0.85)" clip-path="url(#CLIPPATH_6)"  >
<clipPath id="CLIPPATH_6" >
	<path transform="matrix(1 0 0 1 0 0) translate(-400, -400)" d="M 0 800 L 800 800 L 800 0 L 0 0 Z" stroke-linecap="round" />
</clipPath>
<path style="stroke: none; stroke-width: 1; stroke-dasharray: none; stroke-linecap: butt; stroke-dashoffset: 0; stroke-linejoin: miter; stroke-miterlimit: 4; fill: rgb(255,255,255); fill-rule: nonzero; opacity: 1;" vector-effect="non-scaling-stroke"  transform=" translate(-253.98, -0.13)" d="M 0 0 L 63.443 63.442 L 126.885 0 L 63.443 -63.443 Z M 444.513 63.865 L 190.238 -190.411 L 253.677 -253.846 L 507.96 0.426 Z M 95.138 -95.13 L 349.413 159.145 L 412.856 95.702 L 158.581 -158.574 Z M 95.022 95.003 L 254.133 254.114 L 317.576 190.671 L 158.465 31.561 Z" stroke-linecap="round" />
</g>
</g>
</g>
		<g transform="matrix(0.44 0 0 0.44 -128.71 0)"  >
<g style="" vector-effect="non-scaling-stroke"   >
		<g transform="matrix(1.33 0 0 -1.33 -1.22 -1.22)" clip-path="url(#CLIPPATH_7)"  >
<clipPath id="CLIPPATH_7" >
	<path transform="matrix(1 0 0 1 -0.21 0.46) translate(-621, -481)" d="M 0 962 L 1242 962 L 1242 0 L 0 0 Z" stroke-linecap="round" />
</clipPath>
<path style="stroke: none; stroke-width: 1; stroke-dasharray: none; stroke-linecap: butt; stroke-dashoffset: 0; stroke-linejoin: miter; stroke-miterlimit: 4; fill: rgb(98,126,234); fill-rule: nonzero; opacity: 1;" vector-effect="non-scaling-stroke"  transform=" translate(0, 365.79)" d="M 0 0 C 202.021 0 365.79 -163.77 365.79 -365.791 C 365.79 -567.811 202.02100000000002 -731.581 0 -731.581 C -202.021 -731.581 -365.79 -567.811 -365.79 -365.791 C -365.79 -163.77 -202.021 0 0 0" stroke-linecap="round" />
</g>
		<g transform="matrix(1.33 0 0 -1.33 129.16 -180.01)" clip-path="url(#CLIPPATH_8)"  >
<clipPath id="CLIPPATH_8" >
	<path transform="matrix(1 0 0 1 0 0) translate(-718.29, -615.2)" clip-path="url(#undefined)" d="M 632.595 754.886 L 803.991 754.886 L 803.991 475.514 L 632.595 475.514 Z" stroke-linecap="round" />
</clipPath>
<path style="stroke: none; stroke-width: 1; stroke-dasharray: none; stroke-linecap: butt; stroke-dashoffset: 0; stroke-linejoin: miter; stroke-miterlimit: 4; fill: rgb(255,255,255); fill-rule: nonzero; opacity: 0.6;" vector-effect="non-scaling-stroke"  transform=" translate(-85.7, 139.69)" d="M 0 0 L 0 -202.785 L 171.396 -279.372 z" stroke-linecap="round" />
</g>
		<g transform="matrix(1.33 0 0 -1.33 -99.39 -180.01)" clip-path="url(#CLIPPATH_9)"  >
<clipPath id="CLIPPATH_9" >
	<path transform="matrix(1 0 0 1 74.11 -134.2) translate(-621, -481)" d="M 0 962 L 1242 962 L 1242 0 L 0 0 Z" stroke-linecap="round" />
</clipPath>
<path style="stroke: none; stroke-width: 1; stroke-dasharray: none; stroke-linecap: butt; stroke-dashoffset: 0; stroke-linejoin: miter; stroke-miterlimit: 4; fill: rgb(255,255,255); fill-rule: nonzero; opacity: 1;" vector-effect="non-scaling-stroke"  transform=" translate(85.71, 139.69)" d="M 0 0 L -171.418 -279.372 L 0 -202.785 Z" stroke-linecap="round" />
</g>
		<g transform="matrix(1.33 0 0 -1.33 129.23 207.05)" clip-path="url(#CLIPPATH_10)"  >
<clipPath id="CLIPPATH_10" >
	<path transform="matrix(1 0 0 1 0 0) translate(-718.35, -324.96)" clip-path="url(#undefined)" d="M 632.595 443.598 L 804.105 443.598 L 804.105 206.315 L 632.595 206.315 z" stroke-linecap="round" />
</clipPath>
<path style="stroke: none; stroke-width: 1; stroke-dasharray: none; stroke-linecap: butt; stroke-dashoffset: 0; stroke-linejoin: miter; stroke-miterlimit: 4; fill: rgb(255,255,255); fill-rule: nonzero; opacity: 0.6;" vector-effect="non-scaling-stroke"  transform=" translate(-85.75, 19.15)" d="M 0 0 L 0 -137.789 L 171.51 99.495 Z" stroke-linecap="round" />
</g>
		<g transform="matrix(1.33 0 0 -1.33 -99.39 207.05)" clip-path="url(#CLIPPATH_11)"  >
<clipPath id="CLIPPATH_11" >
	<path transform="matrix(1 0 0 1 74.11 156.04) translate(-621, -481)" d="M 0 962 L 1242 962 L 1242 0 L 0 0 Z" stroke-linecap="round" />
</clipPath>
<path style="stroke: none; stroke-width: 1; stroke-dasharray: none; stroke-linecap: butt; stroke-dashoffset: 0; stroke-linejoin: miter; stroke-miterlimit: 4; fill: rgb(255,255,255); fill-rule: nonzero; opacity: 1;" vector-effect="non-scaling-stroke"  transform=" translate(85.71, -118.64)" d="M 0 0 L 0 137.812 L -171.418 237.284 z" stroke-linecap="round" />
</g>
		<g transform="matrix(1.33 0 0 -1.33 129.16 21.73)" clip-path="url(#CLIPPATH_12)"  >
<clipPath id="CLIPPATH_12" >
	<path transform="matrix(1 0 0 1 0 0) translate(-718.29, -464.03)" clip-path="url(#undefined)" d="M 632.595 552.055 L 803.991 552.055 L 803.991 375.996 L 632.595 375.996 Z" stroke-linecap="round" />
</clipPath>
<path style="stroke: none; stroke-width: 1; stroke-dasharray: none; stroke-linecap: butt; stroke-dashoffset: 0; stroke-linejoin: miter; stroke-miterlimit: 4; fill: rgb(255,255,255); fill-rule: nonzero; opacity: 0.2;" vector-effect="non-scaling-stroke"  transform=" translate(-85.7, -88.03)" d="M 0 0 L 171.396 99.518 L 0 176.059 Z" stroke-linecap="round" />
</g>
		<g transform="matrix(1.33 0 0 -1.33 -99.39 21.73)" clip-path="url(#CLIPPATH_13)"  >
<clipPath id="CLIPPATH_13" >
	<path transform="matrix(1 0 0 1 0 0) translate(-546.89, -464.03)" clip-path="url(#undefined)" d="M 461.177 552.055 L 632.595 552.055 L 632.595 375.996 L 461.177 375.996 Z" stroke-linecap="round" />
</clipPath>
<path style="stroke: none; stroke-width: 1; stroke-dasharray: none; stroke-linecap: butt; stroke-dashoffset: 0; stroke-linejoin: miter; stroke-miterlimit: 4; fill: rgb(255,255,255); fill-rule: nonzero; opacity: 0.6;" vector-effect="non-scaling-stroke"  transform=" translate(-85.71, 11.49)" d="M 0 0 L 171.418 -99.518 L 171.418 76.542 Z" stroke-linecap="round" />
</g>
</g>
</g>
</g>
</g>
</svg>