<?xml version="1.0" encoding="UTF-8"?>
<!DOCTYPE svg PUBLIC "-//W3C//DTD SVG 1.1//EN" "http://www.w3.org/Graphics/SVG/1.1/DTD/svg11.dtd">
<svg xmlns="http://www.w3.org/2000/svg" version="1.1" width="240px" height="210px" style="shape-rendering:geometricPrecision; text-rendering:geometricPrecision; image-rendering:optimizeQuality; fill-rule:evenodd; clip-rule:evenodd" xmlns:xlink="http://www.w3.org/1999/xlink">
<g><path style="opacity:1" fill="#fefefe" d="M -0.5,-0.5 C 79.5,-0.5 159.5,-0.5 239.5,-0.5C 239.5,69.5 239.5,139.5 239.5,209.5C 159.5,209.5 79.5,209.5 -0.5,209.5C -0.5,139.5 -0.5,69.5 -0.5,-0.5 Z"/></g>
<g><path style="opacity:1" fill="#d1e7fa" d="M 132.5,7.5 C 159.968,23.7375 187.634,39.7375 215.5,55.5C 217.506,59.1985 218.006,63.1985 217,67.5C 214.473,79.5788 211.64,91.5788 208.5,103.5C 208.957,104.298 209.624,104.631 210.5,104.5C 213.681,106.592 216.681,108.925 219.5,111.5C 209.249,116.431 199.249,121.764 189.5,127.5C 182.398,122.774 175.064,118.274 167.5,114C 165.35,112.589 163.016,111.755 160.5,111.5C 160.5,113.5 160.5,115.5 160.5,117.5C 152.054,112.894 143.721,108.061 135.5,103C 133.975,101.991 132.308,101.491 130.5,101.5C 129.393,99.0311 127.393,98.0311 124.5,98.5C 124.426,96.5891 123.426,95.4224 121.5,95C 122.672,94.5814 123.672,93.9147 124.5,93C 123.034,92.3645 121.7,91.5312 120.5,90.5C 118.681,92.9114 116.681,93.078 114.5,91C 115.672,90.5814 116.672,89.9147 117.5,89C 115.99,88.1502 114.49,87.3169 113,86.5C 111.174,87.0104 111.007,87.8438 112.5,89C 111.451,89.4922 110.451,89.3256 109.5,88.5C 104.811,90.8443 100.145,93.1777 95.5,95.5C 94.8902,94.609 94.5569,93.609 94.5,92.5C 100.593,88.1203 107.259,84.7869 114.5,82.5C 113.456,80.2324 113.289,77.8991 114,75.5C 118.576,53.3673 123.576,31.3673 129,9.5C 130.113,8.69499 131.279,8.02832 132.5,7.5 Z"/></g>
<g><path style="opacity:1" fill="#183c7b" d="M 131.5,13.5 C 135.105,13.7986 138.439,14.9653 141.5,17C 165.082,30.7073 188.582,44.5406 212,58.5C 212.875,59.8732 213.375,61.3732 213.5,63C 210.889,75.9446 207.889,88.7779 204.5,101.5C 200.22,98.7764 195.72,96.4431 191,94.5C 182.559,99.3032 174.059,103.97 165.5,108.5C 149.795,100.23 134.295,91.5634 119,82.5C 117.496,78.9613 117.163,75.2946 118,71.5C 122.006,51.9979 126.506,32.6646 131.5,13.5 Z"/></g>
<g><path style="opacity:1" fill="#3466a8" d="M 132.5,7.5 C 133.873,7.34332 135.207,7.50999 136.5,8C 163.563,23.8598 190.563,39.6931 217.5,55.5C 216.833,55.5 216.167,55.5 215.5,55.5C 187.634,39.7375 159.968,23.7375 132.5,7.5 Z"/></g>
<g><path style="opacity:1" fill="#d6ebfe" d="M 79.5,25.5 C 86.1844,29.9337 93.0177,34.267 100,38.5C 99.3924,44.1511 98.5591,49.8178 97.5,55.5C 96.3991,56.5983 95.0657,56.765 93.5,56C 90.4469,54.4734 87.4469,52.9734 84.5,51.5C 80.4458,49.1429 76.7792,46.3095 73.5,43C 74.6662,37.8358 75.8329,32.6691 77,27.5C 77.7083,26.6195 78.5416,25.9528 79.5,25.5 Z"/></g>
<g><path style="opacity:1" fill="#5991ce" d="M 79.5,25.5 C 86.6887,28.6601 93.6887,32.3268 100.5,36.5C 101.341,41.1342 101.341,45.8009 100.5,50.5C 100.062,50.4346 99.7284,50.6012 99.5,51C 100.672,51.4186 101.672,52.0853 102.5,53C 101.551,53.6172 100.718,53.4506 100,52.5C 99.7645,54.1193 98.9311,55.1193 97.5,55.5C 98.5591,49.8178 99.3924,44.1511 100,38.5C 93.0177,34.267 86.1844,29.9337 79.5,25.5 Z"/></g>
<g><path style="opacity:1" fill="#cbddec" d="M 138.5,36.5 C 142.477,37.4861 145.81,39.4861 148.5,42.5C 148.167,42.8333 147.833,43.1667 147.5,43.5C 144.995,41.7467 142.329,40.2467 139.5,39C 138.748,38.3292 138.414,37.4959 138.5,36.5 Z"/></g>
<g><path style="opacity:1" fill="#e0e4ec" d="M 137.5,41.5 C 141.263,42.252 144.596,43.9187 147.5,46.5C 146.635,47.5827 145.635,47.7494 144.5,47C 141.664,45.609 139.331,43.7757 137.5,41.5 Z"/></g>
<g><path style="opacity:1" fill="#6a5add" d="M 100.5,50.5 C 103.758,51.9076 106.924,53.5743 110,55.5C 110.448,62.0455 109.448,68.3788 107,74.5C 106.667,73.1667 106.333,71.8333 106,70.5C 105.784,72.3839 105.117,74.0506 104,75.5C 97.0845,71.6261 90.2512,67.6261 83.5,63.5C 83.1667,62.8333 82.8333,62.1667 82.5,61.5C 83.4877,58.2184 84.1543,54.8851 84.5,51.5C 87.4469,52.9734 90.4469,54.4734 93.5,56C 95.0657,56.765 96.3991,56.5983 97.5,55.5C 98.9311,55.1193 99.7645,54.1193 100,52.5C 100.718,53.4506 101.551,53.6172 102.5,53C 101.672,52.0853 100.672,51.4186 99.5,51C 99.7284,50.6012 100.062,50.4346 100.5,50.5 Z"/></g>
<g><path style="opacity:1" fill="#c2d4e4" d="M 135.5,50.5 C 139.246,51.5404 142.579,53.3737 145.5,56C 145.15,57.2575 144.483,57.5908 143.5,57C 140.509,55.0348 137.843,52.8682 135.5,50.5 Z"/></g>
<g><path style="opacity:1" fill="#edebf9" d="M 89.5,56.5 C 93.31,57.7542 93.31,58.7542 89.5,59.5C 89.5,58.5 89.5,57.5 89.5,56.5 Z"/></g>
<g><path style="opacity:1" fill="#e7e5f9" d="M 93.5,58.5 C 96.5688,58.963 97.0688,60.2963 95,62.5C 93.8118,61.4366 93.3118,60.1033 93.5,58.5 Z"/></g>
<g><path style="opacity:1" fill="#fdfeff" d="M 166.5,59.5 C 168.337,59.6395 168.67,60.3061 167.5,61.5C 166.702,61.0431 166.369,60.3764 166.5,59.5 Z"/></g>
<g><path style="opacity:1" fill="#eeeef9" d="M 97.5,61.5 C 98.5,61.5 99.5,61.5 100.5,61.5C 99.7542,65.31 98.7542,65.31 97.5,61.5 Z"/></g>
<g><path style="opacity:1" fill="#e4f8ff" d="M 170.5,61.5 C 172.337,61.6395 172.67,62.3061 171.5,63.5C 170.702,63.0431 170.369,62.3764 170.5,61.5 Z"/></g>
<g><path style="opacity:1" fill="#cee1ef" d="M 151.5,58.5 C 161.898,64.073 171.898,70.2397 181.5,77C 181.333,77.5 181.167,78 181,78.5C 172.249,73.2072 163.415,68.0405 154.5,63C 152.561,62.0922 151.561,60.5922 151.5,58.5 Z"/></g>
<g><path style="opacity:1" fill="#e4e7ee" d="M 150.5,63.5 C 156.271,66.2199 161.938,69.2199 167.5,72.5C 168.583,73.365 168.749,74.365 168,75.5C 162.582,72.207 157.082,69.0403 151.5,66C 150.748,65.3292 150.414,64.4959 150.5,63.5 Z"/></g>
<g><path style="opacity:1" fill="#223277" d="M 215.5,55.5 C 216.167,55.5 216.833,55.5 217.5,55.5C 218.94,56.9461 219.607,58.7794 219.5,61C 216.416,75.5 213.416,90 210.5,104.5C 209.624,104.631 208.957,104.298 208.5,103.5C 211.64,91.5788 214.473,79.5788 217,67.5C 218.006,63.1985 217.506,59.1985 215.5,55.5 Z"/></g>
<g><path style="opacity:1" fill="#cee1ef" d="M 149.5,67.5 C 156.133,71.1102 162.799,74.7768 169.5,78.5C 170.583,79.365 170.749,80.365 170,81.5C 163.5,77.6667 157,73.8333 150.5,70C 149.748,69.3292 149.414,68.4959 149.5,67.5 Z"/></g>
<g><path style="opacity:1" fill="#3ab7da" d="M 171.5,75.5 C 174.378,76.37 177.045,77.7033 179.5,79.5C 180.583,80.365 180.749,81.365 180,82.5C 177.749,80.6227 175.249,79.1227 172.5,78C 171.748,77.3292 171.414,76.4959 171.5,75.5 Z"/></g>
<g><path style="opacity:1" fill="#fabeae" d="M 89.5,88.5 C 89.5,89.5 89.5,90.5 89.5,91.5C 87.4727,91.6621 85.4727,91.4955 83.5,91C 82.6634,89.9887 82.33,88.8221 82.5,87.5C 83.404,86.791 83.7373,85.791 83.5,84.5C 82.1667,84.5 80.8333,84.5 79.5,84.5C 79.3601,82.8762 80.0267,81.7096 81.5,81C 83.926,81.0479 86.2593,80.8812 88.5,80.5C 88.8333,80.6667 89.1667,80.8333 89.5,81C 88.7599,82.7849 88.0933,84.6183 87.5,86.5C 87.8555,87.5223 88.5222,88.189 89.5,88.5 Z"/></g>
<g><path style="opacity:1" fill="#43b9db" d="M 82.5,87.5 C 82.33,88.8221 82.6634,89.9887 83.5,91C 85.4727,91.4955 87.4727,91.6621 89.5,91.5C 89.5,90.5 89.5,89.5 89.5,88.5C 91.4783,88.7377 93.1449,90.0711 94.5,92.5C 94.5569,93.609 94.8902,94.609 95.5,95.5C 95.281,96.675 95.6143,97.675 96.5,98.5C 100.81,100.358 101.144,101.025 97.5,100.5C 96.5661,102.095 96.5661,103.761 97.5,105.5C 96.8333,106.167 96.1667,106.833 95.5,107.5C 94.0813,106.549 92.4147,106.216 90.5,106.5C 88.5409,110.981 85.5409,114.815 81.5,118C 80.552,118.483 79.552,118.649 78.5,118.5C 78.1583,117.662 77.4916,117.328 76.5,117.5C 76.1667,117.5 75.8333,117.5 75.5,117.5C 75.5,116.833 75.1667,116.5 74.5,116.5C 74.3701,112.132 74.7035,107.798 75.5,103.5C 75.3802,101.412 74.3802,100.078 72.5,99.5C 72.0472,98.5416 71.3805,97.7083 70.5,97C 72.5769,91.9723 75.9102,88.1389 80.5,85.5C 81.7133,85.7472 82.38,86.4138 82.5,87.5 Z"/></g>
<g><path style="opacity:1" fill="#d7ebfc" d="M 50.5,103.5 C 47.0917,106.383 43.2584,108.716 39,110.5C 34.2053,108.192 29.7053,105.525 25.5,102.5C 25.0472,101.542 24.3805,100.708 23.5,100C 28.6024,97.0325 33.769,94.1992 39,91.5C 44.4103,93.9153 49.577,96.7486 54.5,100C 52.9069,100.949 51.5736,102.115 50.5,103.5 Z"/></g>
<g><path style="opacity:1" fill="#bad7f0" d="M 124.5,98.5 C 123.833,99.5 123.167,100.5 122.5,101.5C 120.742,101.123 119.075,100.456 117.5,99.5C 116.3,100.531 114.966,101.365 113.5,102C 114.942,102.377 115.942,103.21 116.5,104.5C 114.577,104.205 112.91,103.372 111.5,102C 113.061,101.059 114.395,99.8924 115.5,98.5C 114.975,97.8076 114.308,97.3076 113.5,97C 114.872,96.5983 116.205,96.0983 117.5,95.5C 117.06,96.9525 117.726,98.1192 119.5,99C 121.197,99.3845 122.863,99.2178 124.5,98.5 Z"/></g>
<g><path style="opacity:1" fill="#568fca" d="M 37.5,96.5 C 40.8515,97.0084 43.8515,98.3418 46.5,100.5C 41.5,105.833 36.5,105.833 31.5,100.5C 33.5654,99.1433 35.5654,97.81 37.5,96.5 Z"/></g>
<g><path style="opacity:1" fill="#f9c3b4" d="M 72.5,99.5 C 74.3802,100.078 75.3802,101.412 75.5,103.5C 74.7035,107.798 74.3701,112.132 74.5,116.5C 73.5,116.167 72.8333,115.5 72.5,114.5C 71.3093,109.355 71.3093,104.355 72.5,99.5 Z"/></g>
<g><path style="opacity:1" fill="#5591ce" d="M 124.5,98.5 C 127.393,98.0311 129.393,99.0311 130.5,101.5C 127.833,102.833 125.167,102.833 122.5,101.5C 123.167,100.5 123.833,99.5 124.5,98.5 Z"/></g>
<g><path style="opacity:1" fill="#5491ce" d="M 122.5,101.5 C 120.97,103.346 118.97,104.346 116.5,104.5C 115.942,103.21 114.942,102.377 113.5,102C 114.966,101.365 116.3,100.531 117.5,99.5C 119.075,100.456 120.742,101.123 122.5,101.5 Z"/></g>
<g><path style="opacity:1" fill="#6c9fd5" d="M 124.5,98.5 C 122.863,99.2178 121.197,99.3845 119.5,99C 117.726,98.1192 117.06,96.9525 117.5,95.5C 116.205,96.0983 114.872,96.5983 113.5,97C 114.308,97.3076 114.975,97.8076 115.5,98.5C 114.395,99.8924 113.061,101.059 111.5,102C 112.91,103.372 114.577,104.205 116.5,104.5C 116.918,105.222 117.584,105.722 118.5,106C 116.783,107.559 114.783,108.392 112.5,108.5C 111.235,107.521 109.901,106.521 108.5,105.5C 108.089,106.262 107.923,107.262 108,108.5C 106.333,109.833 104.667,109.833 103,108.5C 102.383,107.551 102.549,106.718 103.5,106C 101.46,106.614 99.4605,106.448 97.5,105.5C 96.5661,103.761 96.5661,102.095 97.5,100.5C 101.144,101.025 100.81,100.358 96.5,98.5C 95.6143,97.675 95.281,96.675 95.5,95.5C 100.145,93.1777 104.811,90.8443 109.5,88.5C 110.451,89.3256 111.451,89.4922 112.5,89C 111.007,87.8438 111.174,87.0104 113,86.5C 114.49,87.3169 115.99,88.1502 117.5,89C 116.672,89.9147 115.672,90.5814 114.5,91C 116.681,93.078 118.681,92.9114 120.5,90.5C 121.7,91.5312 123.034,92.3645 124.5,93C 123.672,93.9147 122.672,94.5814 121.5,95C 123.426,95.4224 124.426,96.5891 124.5,98.5 Z"/></g>
<g><path style="opacity:1" fill="#48b8db" d="M 122.5,101.5 C 125.167,102.833 127.833,102.833 130.5,101.5C 132.308,101.491 133.975,101.991 135.5,103C 143.721,108.061 152.054,112.894 160.5,117.5C 160.5,123.5 160.5,129.5 160.5,135.5C 153.658,139.422 146.658,143.088 139.5,146.5C 127.73,139.903 115.064,132.903 101.5,125.5C 100.374,124.142 100.374,122.808 101.5,121.5C 105.083,120.22 108.083,118.22 110.5,115.5C 111.626,113.547 113.292,112.047 115.5,111C 114.429,110.148 113.429,109.315 112.5,108.5C 114.783,108.392 116.783,107.559 118.5,106C 117.584,105.722 116.918,105.222 116.5,104.5C 118.97,104.346 120.97,103.346 122.5,101.5 Z"/></g>
<g><path style="opacity:1" fill="#fac2b2" d="M 95.5,107.5 C 95.5,107.833 95.5,108.167 95.5,108.5C 94.8902,109.391 94.5569,110.391 94.5,111.5C 93.8333,111.5 93.5,111.833 93.5,112.5C 89.5606,114.446 85.894,116.779 82.5,119.5C 78.9921,123.692 77.6588,123.358 78.5,118.5C 79.552,118.649 80.552,118.483 81.5,118C 85.5409,114.815 88.5409,110.981 90.5,106.5C 92.4147,106.216 94.0813,106.549 95.5,107.5 Z"/></g>
<g><path style="opacity:1" fill="#4573b0" d="M 25.5,102.5 C 29.7053,105.525 34.2053,108.192 39,110.5C 43.2584,108.716 47.0917,106.383 50.5,103.5C 52.1703,103.249 53.6703,102.582 55,101.5C 55.6893,105.778 53.856,108.444 49.5,109.5C 46.0928,111.622 42.5928,113.622 39,115.5C 35.4072,113.622 31.9072,111.622 28.5,109.5C 24.144,108.444 22.3107,105.778 23,101.5C 23.6708,102.252 24.5041,102.586 25.5,102.5 Z"/></g>
<g><path style="opacity:1" fill="#b1d1ed" d="M 97.5,105.5 C 99.4605,106.448 101.46,106.614 103.5,106C 102.549,106.718 102.383,107.551 103,108.5C 104.667,109.833 106.333,109.833 108,108.5C 107.923,107.262 108.089,106.262 108.5,105.5C 109.901,106.521 111.235,107.521 112.5,108.5C 109.342,108.694 107.675,110.027 107.5,112.5C 105.548,110.905 103.548,110.405 101.5,111C 101.833,110.667 102.167,110.333 102.5,110C 100.478,107.637 98.1445,107.137 95.5,108.5C 95.5,108.167 95.5,107.833 95.5,107.5C 96.1667,106.833 96.8333,106.167 97.5,105.5 Z"/></g>
<g><path style="opacity:1" fill="#5590cc" d="M 72.5,114.5 C 72.8333,115.5 73.5,116.167 74.5,116.5C 75.1667,116.5 75.5,116.833 75.5,117.5C 75.6657,121.846 75.499,126.179 75,130.5C 71.8006,128.117 68.3006,126.45 64.5,125.5C 63.7934,123.866 62.6268,122.532 61,121.5C 60.5012,117.514 60.3345,113.514 60.5,109.5C 64.749,110.626 68.749,112.293 72.5,114.5 Z"/></g>
<g><path style="opacity:1" fill="#8b9ebc" d="M 28.5,109.5 C 31.9072,111.622 35.4072,113.622 39,115.5C 42.5928,113.622 46.0928,111.622 49.5,109.5C 50.8333,110.933 52.3333,112.267 54,113.5C 54.6667,114.167 54.6667,114.833 54,115.5C 49.2132,118.633 44.2132,121.3 39,123.5C 33.7868,121.3 28.7868,118.633 24,115.5C 23.3333,114.833 23.3333,114.167 24,113.5C 25.6667,112.267 27.1667,110.933 28.5,109.5 Z"/></g>
<g><path style="opacity:1" fill="#5994cf" d="M 112.5,108.5 C 113.429,109.315 114.429,110.148 115.5,111C 113.292,112.047 111.626,113.547 110.5,115.5C 108.742,115.877 107.075,116.544 105.5,117.5C 102.046,115.031 98.3794,113.031 94.5,111.5C 94.5569,110.391 94.8902,109.391 95.5,108.5C 98.1445,107.137 100.478,107.637 102.5,110C 102.167,110.333 101.833,110.667 101.5,111C 103.548,110.405 105.548,110.905 107.5,112.5C 107.675,110.027 109.342,108.694 112.5,108.5 Z"/></g>
<g><path style="opacity:1" fill="#d7ebfc" d="M 94.5,111.5 C 98.3794,113.031 102.046,115.031 105.5,117.5C 107.075,116.544 108.742,115.877 110.5,115.5C 108.083,118.22 105.083,120.22 101.5,121.5C 100.374,122.808 100.374,124.142 101.5,125.5C 97.0614,127.554 92.728,129.887 88.5,132.5C 87.479,133.002 87.3123,133.668 88,134.5C 95.9598,139.562 104.127,144.229 112.5,148.5C 113.713,148.253 114.38,147.586 114.5,146.5C 122.682,151.425 131.015,156.091 139.5,160.5C 146.478,157.346 153.145,153.679 159.5,149.5C 160.473,151.948 160.806,154.615 160.5,157.5C 153.899,160.468 147.566,163.968 141.5,168C 138.937,169.079 136.271,169.579 133.5,169.5C 115.06,158.441 96.3933,147.608 77.5,137C 76.7476,136.329 76.4142,135.496 76.5,134.5C 80.6155,132.225 84.6155,129.725 88.5,127C 90.1412,125.871 91.1412,124.371 91.5,122.5C 92.2216,122.082 92.7216,121.416 93,120.5C 93.4974,117.854 93.6641,115.187 93.5,112.5C 93.5,111.833 93.8333,111.5 94.5,111.5 Z"/></g>
<g><path style="opacity:1" fill="#46b4d7" d="M 93.5,112.5 C 93.6641,115.187 93.4974,117.854 93,120.5C 92.7216,121.416 92.2216,122.082 91.5,122.5C 90.3684,121.646 89.035,121.646 87.5,122.5C 85.326,122.25 83.6594,121.25 82.5,119.5C 85.894,116.779 89.5606,114.446 93.5,112.5 Z"/></g>
<g><path style="opacity:1" fill="#fcfdfe" d="M 140.5,116.5 C 146.212,118.524 151.545,121.357 156.5,125C 151.119,128.69 145.452,131.857 139.5,134.5C 134.213,132.189 129.213,129.356 124.5,126C 130.062,123.059 135.395,119.892 140.5,116.5 Z"/></g>
<g><path style="opacity:1" fill="#3a6ba9" d="M 219.5,111.5 C 219.833,132.844 219.5,154.177 218.5,175.5C 215.769,177.192 213.102,178.858 210.5,180.5C 203.833,184.167 197.167,187.833 190.5,191.5C 190.822,170.091 190.488,148.758 189.5,127.5C 199.249,121.764 209.249,116.431 219.5,111.5 Z"/></g>
<g><path style="opacity:1" fill="#e6f2fc" d="M 76.5,117.5 C 77.4916,117.328 78.1583,117.662 78.5,118.5C 77.6588,123.358 78.9921,123.692 82.5,119.5C 83.6594,121.25 85.326,122.25 87.5,122.5C 84.8039,125.496 81.4705,127.829 77.5,129.5C 76.5091,125.555 76.1758,121.555 76.5,117.5 Z"/></g>
<g><path style="opacity:1" fill="#88dbf4" d="M 101.5,125.5 C 115.064,132.903 127.73,139.903 139.5,146.5C 139.281,147.675 139.614,148.675 140.5,149.5C 147.431,146.701 154.097,143.368 160.5,139.5C 160.631,140.239 160.464,140.906 160,141.5C 157.985,142.697 156.151,144.03 154.5,145.5C 149.395,147.887 144.395,150.554 139.5,153.5C 138.893,153.376 138.56,153.043 138.5,152.5C 138.719,151.325 138.386,150.325 137.5,149.5C 125.437,142.473 113.437,135.473 101.5,128.5C 101.5,127.5 101.5,126.5 101.5,125.5 Z"/></g>
<g><path style="opacity:1" fill="#4072b0" d="M 62.5,127.5 C 61.8902,128.391 61.5569,129.391 61.5,130.5C 61.1667,130.5 60.8333,130.5 60.5,130.5C 56.5651,128.71 53.2318,126.21 50.5,123C 50.8333,122.5 51.1667,122 51.5,121.5C 55.0608,123.779 58.7274,125.779 62.5,127.5 Z"/></g>
<g><path style="opacity:1" fill="#fcfdfe" d="M 101.5,125.5 C 101.5,126.5 101.5,127.5 101.5,128.5C 100.711,128.783 100.044,129.283 99.5,130C 102.407,131.609 105.073,133.442 107.5,135.5C 105.277,136.114 103.611,137.448 102.5,139.5C 106.517,141.861 110.517,144.194 114.5,146.5C 114.38,147.586 113.713,148.253 112.5,148.5C 104.127,144.229 95.9598,139.562 88,134.5C 87.3123,133.668 87.479,133.002 88.5,132.5C 92.728,129.887 97.0614,127.554 101.5,125.5 Z"/></g>
<g><path style="opacity:1" fill="#183d7c" d="M 75.5,117.5 C 75.8333,117.5 76.1667,117.5 76.5,117.5C 76.1758,121.555 76.5091,125.555 77.5,129.5C 81.4705,127.829 84.8039,125.496 87.5,122.5C 89.035,121.646 90.3684,121.646 91.5,122.5C 91.1412,124.371 90.1412,125.871 88.5,127C 84.6155,129.725 80.6155,132.225 76.5,134.5C 75.5489,135.919 75.2155,137.585 75.5,139.5C 75.5,143.833 75.5,148.167 75.5,152.5C 74.4324,153.434 73.099,153.768 71.5,153.5C 71.5987,150.763 71.2653,148.096 70.5,145.5C 70.3256,142.126 69.8256,138.793 69,135.5C 68.6667,140.167 68.3333,144.833 68,149.5C 67.0053,150.066 66.172,150.733 65.5,151.5C 65.1667,151.5 64.8333,151.5 64.5,151.5C 64.3841,148.14 64.0508,144.807 63.5,141.5C 63.152,137.742 62.4853,134.076 61.5,130.5C 61.5569,129.391 61.8902,128.391 62.5,127.5C 63.1667,126.833 63.8333,126.167 64.5,125.5C 68.3006,126.45 71.8006,128.117 75,130.5C 75.499,126.179 75.6657,121.846 75.5,117.5 Z"/></g>
<g><path style="opacity:1" fill="#889bb9" d="M 60.5,130.5 C 60.8333,130.5 61.1667,130.5 61.5,130.5C 62.4853,134.076 63.152,137.742 63.5,141.5C 60.2481,140.385 57.5814,138.552 55.5,136C 56.7416,133.728 58.4083,131.894 60.5,130.5 Z"/></g>
<g><path style="opacity:1" fill="#34a8ca" d="M 101.5,128.5 C 113.437,135.473 125.437,142.473 137.5,149.5C 138.386,150.325 138.719,151.325 138.5,152.5C 128.327,146.579 117.994,140.913 107.5,135.5C 105.073,133.442 102.407,131.609 99.5,130C 100.044,129.283 100.711,128.783 101.5,128.5 Z"/></g>
<g><path style="opacity:1" fill="#ecf6fb" d="M 160.5,135.5 C 160.5,136.833 160.5,138.167 160.5,139.5C 154.097,143.368 147.431,146.701 140.5,149.5C 139.614,148.675 139.281,147.675 139.5,146.5C 146.658,143.088 153.658,139.422 160.5,135.5 Z"/></g>
<g><path style="opacity:1" fill="#163978" d="M 208.5,134.5 C 209.725,135.152 210.392,136.319 210.5,138C 210.333,139.167 210.167,140.333 210,141.5C 209.692,140.692 209.192,140.025 208.5,139.5C 206.979,139.88 205.313,140.046 203.5,140C 202.506,141.329 201.506,142.662 200.5,144C 200.905,144.945 201.572,145.612 202.5,146C 201.584,146.374 200.75,146.874 200,147.5C 199.333,145.167 199.333,142.833 200,140.5C 202.988,138.601 205.821,136.601 208.5,134.5 Z"/></g>
<g><path style="opacity:1" fill="#8b9ebc" d="M 75.5,139.5 C 94.8333,150.5 114.167,161.5 133.5,172.5C 135.857,172.663 138.19,172.497 140.5,172C 147.055,167.939 153.721,164.106 160.5,160.5C 160.751,165.507 161.084,170.507 161.5,175.5C 160.835,173.631 160.169,171.631 159.5,169.5C 152.997,173.586 146.33,177.419 139.5,181C 136.833,181.667 134.167,181.667 131.5,181C 113.252,170.626 95.0849,160.126 77,149.5C 76.7679,150.737 76.2679,151.737 75.5,152.5C 75.5,148.167 75.5,143.833 75.5,139.5 Z"/></g>
<g><path style="opacity:1" fill="#7996bb" d="M 107.5,135.5 C 117.994,140.913 128.327,146.579 138.5,152.5C 138.56,153.043 138.893,153.376 139.5,153.5C 144.395,150.554 149.395,147.887 154.5,145.5C 156.349,146.593 158.016,147.926 159.5,149.5C 153.145,153.679 146.478,157.346 139.5,160.5C 131.015,156.091 122.682,151.425 114.5,146.5C 110.517,144.194 106.517,141.861 102.5,139.5C 103.611,137.448 105.277,136.114 107.5,135.5 Z"/></g>
<g><path style="opacity:1" fill="#aab5d0" d="M 70.5,145.5 C 69.5489,146.919 69.2155,148.585 69.5,150.5C 68.8444,151.278 68.0111,151.944 67,152.5C 66.2352,152.43 65.7352,152.097 65.5,151.5C 66.172,150.733 67.0053,150.066 68,149.5C 68.3333,144.833 68.6667,140.167 69,135.5C 69.8256,138.793 70.3256,142.126 70.5,145.5 Z"/></g>
<g><path style="opacity:1" fill="#6757dd" d="M 42.5,161.5 C 36.2469,166.791 29.2469,167.791 21.5,164.5C 17.3595,157.147 19.3595,152.314 27.5,150C 31.9963,149.148 36.3296,149.648 40.5,151.5C 42.7808,154.606 43.4475,157.939 42.5,161.5 Z"/></g>
<g><path style="opacity:1" fill="#376aaa" d="M 76.5,134.5 C 76.4142,135.496 76.7476,136.329 77.5,137C 96.3933,147.608 115.06,158.441 133.5,169.5C 133.5,170.5 133.5,171.5 133.5,172.5C 114.167,161.5 94.8333,150.5 75.5,139.5C 75.2155,137.585 75.5489,135.919 76.5,134.5 Z"/></g>
<g><path style="opacity:1" fill="#6353dc" d="M 69.5,150.5 C 69.2526,155.076 66.9193,157.743 62.5,158.5C 62.1706,155.772 62.8372,153.438 64.5,151.5C 64.8333,151.5 65.1667,151.5 65.5,151.5C 65.7352,152.097 66.2352,152.43 67,152.5C 68.0111,151.944 68.8444,151.278 69.5,150.5 Z"/></g>
<g><path style="opacity:1" fill="#dcd8f5" d="M 24.5,153.5 C 26.9118,153.694 27.9118,155.027 27.5,157.5C 31.4452,156.344 35.4452,155.844 39.5,156C 34.7773,158.232 29.944,159.065 25,158.5C 24.5065,156.866 24.3398,155.199 24.5,153.5 Z"/></g>
<g><path style="opacity:1" fill="#6556dc" d="M 71.5,154.5 C 73.0394,156.982 74.5394,156.982 76,154.5C 76.2462,159.09 74.0795,161.757 69.5,162.5C 69.2826,159.579 69.9493,156.913 71.5,154.5 Z"/></g>
<g><path style="opacity:1" fill="#1b3c7b" d="M 160.5,157.5 C 160.5,158.5 160.5,159.5 160.5,160.5C 153.721,164.106 147.055,167.939 140.5,172C 138.19,172.497 135.857,172.663 133.5,172.5C 133.5,171.5 133.5,170.5 133.5,169.5C 136.271,169.579 138.937,169.079 141.5,168C 147.566,163.968 153.899,160.468 160.5,157.5 Z"/></g>
<g><path style="opacity:1" fill="#9d95e6" d="M 35.5,161.5 C 37.3474,161.234 38.014,161.568 37.5,162.5C 32.8868,164.771 28.2201,164.938 23.5,163C 27.6877,162.824 31.6877,162.324 35.5,161.5 Z"/></g>
<g><path style="opacity:1" fill="#8b9dbe" d="M 42.5,161.5 C 42.8373,165.994 40.8373,168.828 36.5,170C 32.8333,170.667 29.1667,170.667 25.5,170C 22.7854,169.125 21.4521,167.292 21.5,164.5C 29.2469,167.791 36.2469,166.791 42.5,161.5 Z"/></g>
<g><path style="opacity:1" fill="#cce2f7" d="M 92.5,170.5 C 89.8599,171.82 87.1932,173.153 84.5,174.5C 82.4449,173.052 80.2782,171.719 78,170.5C 77.502,173.482 77.3354,176.482 77.5,179.5C 75.3919,174.19 76.7252,170.023 81.5,167C 82.5,166.5 83.5,166 84.5,165.5C 87.568,166.691 90.2346,168.358 92.5,170.5 Z"/></g>
<g><path style="opacity:1" fill="#193979" d="M 92.5,170.5 C 92.8174,173.572 92.4841,176.572 91.5,179.5C 89.739,180.035 88.4057,181.035 87.5,182.5C 86.391,182.557 85.391,182.89 84.5,183.5C 84.5,180.5 84.5,177.5 84.5,174.5C 87.1932,173.153 89.8599,171.82 92.5,170.5 Z"/></g>
<g><path style="opacity:1" fill="#659ad2" d="M 84.5,174.5 C 84.5,177.5 84.5,180.5 84.5,183.5C 83.5,182.833 82.5,182.167 81.5,181.5C 80.1667,180.833 78.8333,180.167 77.5,179.5C 77.3354,176.482 77.502,173.482 78,170.5C 80.2782,171.719 82.4449,173.052 84.5,174.5 Z"/></g>
<g><path style="opacity:1" fill="#558bc6" d="M 189.5,127.5 C 190.488,148.758 190.822,170.091 190.5,191.5C 189.749,192.573 188.749,192.74 187.5,192C 181.779,188.809 176.112,185.642 170.5,182.5C 167.319,180.408 164.319,178.075 161.5,175.5C 161.084,170.507 160.751,165.507 160.5,160.5C 160.5,159.5 160.5,158.5 160.5,157.5C 160.806,154.615 160.473,151.948 159.5,149.5C 158.016,147.926 156.349,146.593 154.5,145.5C 156.151,144.03 157.985,142.697 160,141.5C 160.464,140.906 160.631,140.239 160.5,139.5C 160.5,138.167 160.5,136.833 160.5,135.5C 160.5,129.5 160.5,123.5 160.5,117.5C 160.5,115.5 160.5,113.5 160.5,111.5C 163.016,111.755 165.35,112.589 167.5,114C 175.064,118.274 182.398,122.774 189.5,127.5 Z"/></g>
<g><path style="opacity:1" fill="#193578" d="M 167.5,169.5 C 168.552,169.351 169.552,169.517 170.5,170C 169.289,170.893 169.289,171.726 170.5,172.5C 174.034,174.934 177.701,176.767 181.5,178C 180.304,177.346 180.304,176.846 181.5,176.5C 182.5,177 183.5,177.5 184.5,178C 184.765,179.719 185.265,181.552 186,183.5C 180.582,180.207 175.082,177.04 169.5,174C 167.963,172.89 167.297,171.39 167.5,169.5 Z"/></g>
<g><path style="opacity:1" fill="#0c3172" d="M 182.5,170.5 C 178.939,167.468 174.939,164.968 170.5,163C 166.129,159.121 166.462,157.788 171.5,159C 169.699,159.317 169.366,159.984 170.5,161C 175.5,163.833 180.5,166.667 185.5,169.5C 186.833,170.167 186.833,170.833 185.5,171.5C 184.583,170.873 183.583,170.539 182.5,170.5 Z"/></g>
<g><path style="opacity:1" fill="#2b418b" d="M 178.5,150.5 C 180.927,152.558 183.593,154.391 186.5,156C 184.009,156.626 184.009,157.459 186.5,158.5C 186.167,158.833 185.833,159.167 185.5,159.5C 179.585,156.293 173.752,152.96 168,149.5C 167.219,148.056 167.386,146.723 168.5,145.5C 171.63,147.732 174.963,149.398 178.5,150.5 Z"/></g>
<g><path style="opacity:1" fill="#173d7c" d="M 178.5,150.5 C 175.141,147.832 171.475,145.499 167.5,143.5C 166.353,145.765 166.186,148.098 167,150.5C 173.703,154.699 180.537,158.699 187.5,162.5C 188.833,163.833 188.833,165.167 187.5,166.5C 180.663,162.247 173.663,158.247 166.5,154.5C 165.353,156.765 165.186,159.098 166,161.5C 171.314,164.906 176.814,167.906 182.5,170.5C 184,172.179 185.833,173.512 188,174.5C 188.667,175.833 188.667,177.167 188,178.5C 181.085,174.626 174.251,170.626 167.5,166.5C 166.353,168.765 166.186,171.098 167,173.5C 173.253,177.711 179.753,181.545 186.5,185C 188.559,186.185 188.726,187.352 187,188.5C 178.56,184.462 170.894,179.462 164,173.5C 163.333,153.833 163.333,134.167 164,114.5C 172.164,118.914 180.164,123.581 188,128.5C 188.749,129.635 188.583,130.635 187.5,131.5C 180.5,127.5 173.5,123.5 166.5,119.5C 165.223,122.034 165.223,124.534 166.5,127C 173.585,131.293 180.751,135.46 188,139.5C 188.667,140.833 188.667,142.167 188,143.5C 181.085,139.626 174.251,135.626 167.5,131.5C 166.017,134.612 166.35,137.445 168.5,140C 175.247,143.455 181.747,147.289 188,151.5C 188.667,152.833 188.667,154.167 188,155.5C 185.174,153.171 182.008,151.504 178.5,150.5 Z"/></g>
<g><path style="opacity:1" fill="#183577" d="M 167.5,134.5 C 169.942,134.119 170.609,134.786 169.5,136.5C 172.833,138.5 176.167,140.5 179.5,142.5C 179.833,141.833 180.167,141.167 180.5,140.5C 181.7,141.531 183.034,142.365 184.5,143C 183.378,144.613 183.878,145.78 186,146.5C 186.667,147.167 186.667,147.833 186,148.5C 180.084,145.126 174.25,141.626 168.5,138C 167.663,136.989 167.33,135.822 167.5,134.5 Z"/></g>
<g><path style="opacity:1" fill="#213a7c" d="M 167.5,122.5 C 168.922,122.709 170.255,123.209 171.5,124C 169.699,124.317 169.366,124.984 170.5,126C 171.5,126.5 172.5,127 173.5,127.5C 173.833,126.833 174.167,126.167 174.5,125.5C 175.7,126.531 177.034,127.365 178.5,128C 176.699,128.317 176.366,128.984 177.5,130C 178.5,130.5 179.5,131 180.5,131.5C 180.833,130.833 181.167,130.167 181.5,129.5C 184.995,130.655 186.995,132.988 187.5,136.5C 181.122,134.143 175.122,130.977 169.5,127C 167.963,125.89 167.297,124.39 167.5,122.5 Z"/></g>
<g><path style="opacity:1" fill="#8b9ebc" d="M 210.5,180.5 C 212.435,181.81 214.435,183.143 216.5,184.5C 217.521,185.002 217.688,185.668 217,186.5C 207.937,191.74 198.77,196.74 189.5,201.5C 180.885,197.526 172.551,193.026 164.5,188C 163.289,187.107 163.289,186.274 164.5,185.5C 166.534,184.441 168.534,183.441 170.5,182.5C 176.112,185.642 181.779,188.809 187.5,192C 188.749,192.74 189.749,192.573 190.5,191.5C 197.167,187.833 203.833,184.167 210.5,180.5 Z"/></g>
<g><path style="opacity:1" fill="#8da0bd" d="M 81.5,181.5 C 82.5,182.167 83.5,182.833 84.5,183.5C 85.391,182.89 86.391,182.557 87.5,182.5C 89.0898,182.628 90.4231,183.295 91.5,184.5C 89.4622,186.276 87.2955,187.943 85,189.5C 82.2419,188.205 79.7419,186.539 77.5,184.5C 78.9014,183.479 80.2347,182.479 81.5,181.5 Z"/></g>
</svg>
