<?xml version="1.0" encoding="UTF-8"?>
<!DOCTYPE svg PUBLIC "-//W3C//DTD SVG 1.1//EN" "http://www.w3.org/Graphics/SVG/1.1/DTD/svg11.dtd">
<svg xmlns="http://www.w3.org/2000/svg" version="1.1" width="274px" height="274px" style="shape-rendering:geometricPrecision; text-rendering:geometricPrecision; image-rendering:optimizeQuality; fill-rule:evenodd; clip-rule:evenodd" xmlns:xlink="http://www.w3.org/1999/xlink">
<g><path style="opacity:0.991" fill="#fdfdfe" d="M 72.5,115.5 C 73.3764,115.631 74.0431,115.298 74.5,114.5C 73.5,113.667 72.5,112.833 71.5,112C 71.8333,111.667 72.1667,111.333 72.5,111C 71.184,110.472 70.5173,110.972 70.5,112.5C 68.7901,110.8 66.7901,109.467 64.5,108.5C 63.914,108.709 63.414,109.043 63,109.5C 62.9593,132.883 62.2926,156.217 61,179.5C 56.5237,191.314 48.0237,197.647 35.5,198.5C 35.3333,157.499 35.5,116.499 36,75.5C 47.4238,74.3463 58.9238,74.1796 70.5,75C 83.9498,89.4051 97.2831,103.905 110.5,118.5C 104.722,125.066 98.7221,131.4 92.5,137.5C 85.8354,130.176 79.1688,122.843 72.5,115.5 Z"/></g>
<g><path style="opacity:0.983" fill="#fefefe" d="M 243.5,99.5 C 241.804,97.871 240.804,98.2043 240.5,100.5C 229.866,101.263 219.199,101.763 208.5,102C 207.333,102.5 206.5,103.333 206,104.5C 205.5,135.832 205.333,167.165 205.5,198.5C 193.706,196.852 185.54,190.519 181,179.5C 179.552,156.211 179.052,132.878 179.5,109.5C 180.826,107.435 180.159,106.102 177.5,105.5C 177.912,106.782 177.246,107.782 175.5,108.5C 164.204,121.798 152.537,134.798 140.5,147.5C 138.456,148.031 136.789,149.198 135.5,151C 135.728,151.399 136.062,151.565 136.5,151.5C 132.561,157.108 127.894,162.108 122.5,166.5C 116.665,160.498 110.998,154.331 105.5,148C 115.353,136.65 125.353,125.484 135.5,114.5C 135.56,115.043 135.893,115.376 136.5,115.5C 137.354,114.478 138.354,113.645 139.5,113C 138.944,112.617 138.611,112.117 138.5,111.5C 141.123,107.209 144.456,103.543 148.5,100.5C 151.621,99.7124 153.288,97.7124 153.5,94.5C 158.983,87.5176 164.983,81.0176 171.5,75C 201.498,74.5 231.498,74.3334 261.5,74.5C 260.906,86.756 254.906,95.0893 243.5,99.5 Z"/></g>
<g><path style="opacity:1" fill="#f6f7f9" d="M 153.5,94.5 C 153.288,97.7124 151.621,99.7124 148.5,100.5C 149.443,97.8908 151.11,95.8908 153.5,94.5 Z"/></g>
<g><path style="opacity:0.5" fill="#f3f3f3" d="M 243.5,99.5 C 242.791,100.404 241.791,100.737 240.5,100.5C 240.804,98.2043 241.804,97.871 243.5,99.5 Z"/></g>
<g><path style="opacity:0.9" fill="#f6f6f6" d="M 179.5,109.5 C 178.292,108.766 176.959,108.433 175.5,108.5C 177.246,107.782 177.912,106.782 177.5,105.5C 180.159,106.102 180.826,107.435 179.5,109.5 Z"/></g>
<g><path style="opacity:1" fill="#f6f6f6" d="M 72.5,115.5 C 71.8333,114.5 71.1667,113.5 70.5,112.5C 70.5173,110.972 71.184,110.472 72.5,111C 72.1667,111.333 71.8333,111.667 71.5,112C 72.5,112.833 73.5,113.667 74.5,114.5C 74.0431,115.298 73.3764,115.631 72.5,115.5 Z"/></g>
<g><path style="opacity:1" fill="#f5f7f7" d="M 138.5,111.5 C 138.611,112.117 138.944,112.617 139.5,113C 138.354,113.645 137.354,114.478 136.5,115.5C 135.893,115.376 135.56,115.043 135.5,114.5C 136.167,113.167 137.167,112.167 138.5,111.5 Z"/></g>
<g><path style="opacity:0.857" fill="#f6f6f6" d="M 140.5,147.5 C 139.5,149.167 138.167,150.5 136.5,151.5C 136.062,151.565 135.728,151.399 135.5,151C 136.789,149.198 138.456,148.031 140.5,147.5 Z"/></g>
</svg>
