<?xml version="1.0" encoding="UTF-8"?>
<!DOCTYPE svg PUBLIC "-//W3C//DTD SVG 1.1//EN" "http://www.w3.org/Graphics/SVG/1.1/DTD/svg11.dtd">
<svg xmlns="http://www.w3.org/2000/svg" version="1.1" width="360px" height="360px" style="shape-rendering:geometricPrecision; text-rendering:geometricPrecision; image-rendering:optimizeQuality; fill-rule:evenodd; clip-rule:evenodd" xmlns:xlink="http://www.w3.org/1999/xlink">
<g><path style="opacity:1" fill="#07080a" d="M -0.5,-0.5 C 119.5,-0.5 239.5,-0.5 359.5,-0.5C 359.5,119.5 359.5,239.5 359.5,359.5C 239.5,359.5 119.5,359.5 -0.5,359.5C -0.5,239.5 -0.5,119.5 -0.5,-0.5 Z"/></g>
<g><path style="opacity:1" fill="#fafafa" d="M 110.5,141.5 C 118.528,141.169 126.528,141.502 134.5,142.5C 142.167,151.167 149.833,159.833 157.5,168.5C 154.208,173.46 150.208,177.793 145.5,181.5C 139.816,175.65 134.316,169.65 129,163.5C 128.933,178.221 128.266,192.888 127,207.5C 123.592,214.287 118.092,217.621 110.5,217.5C 110.5,192.167 110.5,166.833 110.5,141.5 Z"/></g>
<g><path style="opacity:1" fill="#fbfbfb" d="M 197.5,202.5 C 197.833,189.15 197.499,175.817 196.5,162.5C 195.893,162.624 195.56,162.957 195.5,163.5C 185.198,175.803 174.531,187.803 163.5,199.5C 159.314,195.149 155.314,190.649 151.5,186C 164.833,171.333 178.167,156.667 191.5,142C 210.497,141.5 229.497,141.333 248.5,141.5C 247.309,150.183 242.643,156.017 234.5,159C 227.842,159.5 221.175,159.666 214.5,159.5C 214.5,178.833 214.5,198.167 214.5,217.5C 204.739,217.069 199.072,212.069 197.5,202.5 Z"/></g>
<g><path style="opacity:1" fill="#b0b1b1" d="M 195.5,163.5 C 195.56,162.957 195.893,162.624 196.5,162.5C 197.499,175.817 197.833,189.15 197.5,202.5C 196.833,189.5 196.167,176.5 195.5,163.5 Z"/></g>
</svg>
